<mxfile host="" modified="2020-07-17T15:45:39.398Z" agent="5.0 (Windows NT 6.1; Win64; x64) AppleWebKit/537.36 (KHTML, like Gecko) Code/1.46.1 Chrome/78.0.3904.130 Electron/7.3.1 Safari/537.36" etag="XIsbKU0KD8GU3umUAS6T" version="13.1.3">
    <diagram id="OmgJ4qW5wpsYwgcd5P-2" name="overview">
        <mxGraphModel dx="832" dy="266" grid="0" gridSize="10" guides="1" tooltips="1" connect="1" arrows="1" fold="1" page="1" pageScale="1" pageWidth="827" pageHeight="1169" math="0" shadow="0">
            <root>
                <mxCell id="N3cMap2h_up9qQD8FVAQ-0"/>
                <mxCell id="N3cMap2h_up9qQD8FVAQ-1" parent="N3cMap2h_up9qQD8FVAQ-0"/>
                <UserObject label="&lt;span&gt;&lt;a href=&quot;https://www.scala-sbt.org/1.x/docs/&quot;&gt;sbt&lt;/a&gt;&lt;/span&gt;" id="2ieICjOpKvX3H15YVJh6-0">
                    <mxCell style="ellipse;whiteSpace=wrap;html=1;align=center;container=1;recursiveResize=0;treeFolding=1;treeMoving=1;snapToPoint=1;fixDash=0;backgroundOutline=0;fontStyle=4;fontColor=#0000FF;" parent="N3cMap2h_up9qQD8FVAQ-1" vertex="1">
                        <mxGeometry x="26" y="312" width="100" height="40" as="geometry"/>
                    </mxCell>
                </UserObject>
                <mxCell id="2ieICjOpKvX3H15YVJh6-1" value="application&amp;nbsp; structure" style="whiteSpace=wrap;html=1;rounded=1;arcSize=50;align=center;verticalAlign=middle;container=1;recursiveResize=0;strokeWidth=1;autosize=1;spacing=4;treeFolding=1;treeMoving=1;snapToPoint=1;fixDash=0;backgroundOutline=0;" parent="N3cMap2h_up9qQD8FVAQ-1" vertex="1">
                    <mxGeometry x="148" y="134" width="146" height="26" as="geometry"/>
                </mxCell>
                <mxCell id="2ieICjOpKvX3H15YVJh6-2" value="" style="edgeStyle=entityRelationEdgeStyle;startArrow=none;endArrow=none;segment=10;curved=1;snapToPoint=1;fixDash=0;backgroundOutline=0;" parent="N3cMap2h_up9qQD8FVAQ-1" source="2ieICjOpKvX3H15YVJh6-0" target="2ieICjOpKvX3H15YVJh6-1" edge="1">
                    <mxGeometry relative="1" as="geometry">
                        <mxPoint x="246" y="15" as="sourcePoint"/>
                    </mxGeometry>
                </mxCell>
                <mxCell id="2ieICjOpKvX3H15YVJh6-3" value="application/&lt;br&gt;&amp;nbsp; &amp;nbsp; - build.sbt&lt;br&gt;&amp;nbsp; &amp;nbsp; - lib/&lt;br&gt;&amp;nbsp; &amp;nbsp; - project/&lt;br&gt;&amp;nbsp; &amp;nbsp; &amp;nbsp; &amp;nbsp; - build.properties&lt;br&gt;&amp;nbsp; &amp;nbsp; &amp;nbsp; &amp;nbsp; - plugins.sbt&lt;br&gt;&amp;nbsp; &amp;nbsp; - src/&lt;br&gt;&amp;nbsp; &amp;nbsp; &amp;nbsp; &amp;nbsp; - main/&lt;br&gt;&amp;nbsp; &amp;nbsp; &amp;nbsp; &amp;nbsp; &amp;nbsp; &amp;nbsp;- resources/&lt;br&gt;&amp;nbsp; &amp;nbsp; &amp;nbsp; &amp;nbsp; &amp;nbsp; &amp;nbsp;- java/&lt;br&gt;&amp;nbsp; &amp;nbsp; &amp;nbsp; &amp;nbsp; &amp;nbsp; &amp;nbsp;- scala/&lt;br&gt;&amp;nbsp; &amp;nbsp; &amp;nbsp; &amp;nbsp; &amp;nbsp; &amp;nbsp; &amp;nbsp; &amp;nbsp; - main.scala&lt;br&gt;&amp;nbsp; &amp;nbsp; &amp;nbsp; &amp;nbsp; - test/&lt;br&gt;&amp;nbsp; &amp;nbsp; &amp;nbsp; &amp;nbsp; &amp;nbsp; &amp;nbsp;- resources/&lt;br&gt;&amp;nbsp; &amp;nbsp; &amp;nbsp; &amp;nbsp; &amp;nbsp; &amp;nbsp;- java/&lt;br&gt;&amp;nbsp; &amp;nbsp; &amp;nbsp; &amp;nbsp; &amp;nbsp; &amp;nbsp;- scala/" style="whiteSpace=wrap;html=1;rounded=1;arcSize=7;align=left;verticalAlign=middle;container=1;recursiveResize=0;strokeWidth=1;autosize=1;spacing=4;treeFolding=1;treeMoving=1;snapToPoint=1;fixDash=0;backgroundOutline=0;spacingLeft=15;glass=0;comic=0;shadow=0;fontFamily=Courier New;" parent="N3cMap2h_up9qQD8FVAQ-1" vertex="1">
                    <mxGeometry x="334" y="27" width="260" height="240" as="geometry"/>
                </mxCell>
                <mxCell id="2ieICjOpKvX3H15YVJh6-4" value="" style="edgeStyle=orthogonalEdgeStyle;rounded=0;orthogonalLoop=1;jettySize=auto;html=1;endArrow=none;endFill=0;" parent="N3cMap2h_up9qQD8FVAQ-1" source="2ieICjOpKvX3H15YVJh6-1" target="2ieICjOpKvX3H15YVJh6-3" edge="1">
                    <mxGeometry relative="1" as="geometry"/>
                </mxCell>
                <mxCell id="2ieICjOpKvX3H15YVJh6-5" value="" style="edgeStyle=entityRelationEdgeStyle;startArrow=none;endArrow=none;segment=10;curved=1;snapToPoint=1;fixDash=0;backgroundOutline=0;exitX=1;exitY=0.5;exitDx=0;exitDy=0;" parent="N3cMap2h_up9qQD8FVAQ-1" source="2ieICjOpKvX3H15YVJh6-0" target="2ieICjOpKvX3H15YVJh6-6" edge="1">
                    <mxGeometry relative="1" as="geometry">
                        <mxPoint x="249" y="125" as="sourcePoint"/>
                    </mxGeometry>
                </mxCell>
                <UserObject label="commands" id="2ieICjOpKvX3H15YVJh6-6">
                    <mxCell style="whiteSpace=wrap;html=1;rounded=1;arcSize=50;align=center;verticalAlign=middle;container=1;recursiveResize=0;strokeWidth=1;autosize=1;spacing=4;treeFolding=1;treeMoving=1;snapToPoint=1;fixDash=0;backgroundOutline=0;" parent="N3cMap2h_up9qQD8FVAQ-1" vertex="1">
                        <mxGeometry x="148" y="465" width="100" height="30" as="geometry"/>
                    </mxCell>
                </UserObject>
                <mxCell id="2ieICjOpKvX3H15YVJh6-7" value="" style="edgeStyle=entityRelationEdgeStyle;startArrow=none;endArrow=none;segment=10;curved=1;snapToPoint=1;fixDash=0;backgroundOutline=0;" parent="N3cMap2h_up9qQD8FVAQ-1" source="2ieICjOpKvX3H15YVJh6-6" target="2ieICjOpKvX3H15YVJh6-8" edge="1">
                    <mxGeometry relative="1" as="geometry">
                        <mxPoint x="240" y="170" as="sourcePoint"/>
                    </mxGeometry>
                </mxCell>
                <UserObject label="&lt;ol&gt;&lt;li&gt;r&lt;font face=&quot;Courier New&quot;&gt;un &amp;amp; ~run -&amp;nbsp;&lt;/font&gt;&amp;nbsp;&lt;font face=&quot;Courier New&quot;&gt;~&lt;/font&gt; will re-run on every file save&lt;/li&gt;&lt;li&gt;&lt;font face=&quot;Courier New&quot;&gt;package -&amp;nbsp;&lt;/font&gt;&lt;span&gt;creates a JAR file&lt;/span&gt;&lt;/li&gt;&lt;li&gt;&lt;font face=&quot;Courier New&quot;&gt;compile&lt;/font&gt;&lt;/li&gt;&lt;li&gt;&lt;font face=&quot;Courier New&quot;&gt;test&lt;/font&gt;&lt;/li&gt;&lt;li&gt;&lt;font face=&quot;Courier New&quot;&gt;console -&amp;nbsp;&lt;/font&gt;start REPL&lt;/li&gt;&lt;li&gt;&lt;font face=&quot;Courier New&quot;&gt;show name -&amp;nbsp;&lt;/font&gt;print project name&lt;/li&gt;&lt;li&gt;&lt;font face=&quot;Courier New&quot;&gt;show libraryDependencies&lt;/font&gt;&lt;/li&gt;&lt;/ol&gt;" id="2ieICjOpKvX3H15YVJh6-8">
                    <mxCell style="whiteSpace=wrap;html=1;rounded=1;arcSize=6;align=left;verticalAlign=middle;container=1;recursiveResize=0;strokeWidth=1;autosize=1;spacing=4;treeFolding=1;treeMoving=1;snapToPoint=1;fixDash=0;backgroundOutline=0;spacingLeft=15;" parent="N3cMap2h_up9qQD8FVAQ-1" vertex="1">
                        <mxGeometry x="294" y="410" width="343" height="141" as="geometry"/>
                    </mxCell>
                </UserObject>
                <mxCell id="2ieICjOpKvX3H15YVJh6-9" value="" style="edgeStyle=entityRelationEdgeStyle;startArrow=none;endArrow=none;segment=10;curved=1;snapToPoint=1;fixDash=0;backgroundOutline=0;" parent="N3cMap2h_up9qQD8FVAQ-1" source="2ieICjOpKvX3H15YVJh6-0" target="2ieICjOpKvX3H15YVJh6-10" edge="1">
                    <mxGeometry relative="1" as="geometry">
                        <mxPoint x="123" y="67" as="sourcePoint"/>
                    </mxGeometry>
                </mxCell>
                <mxCell id="2ieICjOpKvX3H15YVJh6-10" value="configuration" style="whiteSpace=wrap;html=1;rounded=1;arcSize=50;align=center;verticalAlign=middle;container=1;recursiveResize=0;strokeWidth=1;autosize=1;spacing=4;treeFolding=1;treeMoving=1;snapToPoint=1;fixDash=0;backgroundOutline=0;" parent="N3cMap2h_up9qQD8FVAQ-1" vertex="1">
                    <mxGeometry x="150" y="319" width="104" height="26" as="geometry"/>
                </mxCell>
                <mxCell id="2ieICjOpKvX3H15YVJh6-11" value="" style="edgeStyle=entityRelationEdgeStyle;startArrow=none;endArrow=none;segment=10;curved=1;snapToPoint=1;fixDash=0;backgroundOutline=0;" parent="N3cMap2h_up9qQD8FVAQ-1" source="2ieICjOpKvX3H15YVJh6-10" target="2ieICjOpKvX3H15YVJh6-12" edge="1">
                    <mxGeometry relative="1" as="geometry">
                        <mxPoint x="107" y="371" as="sourcePoint"/>
                    </mxGeometry>
                </mxCell>
                <mxCell id="2ieICjOpKvX3H15YVJh6-12" value="&lt;div&gt;&lt;p&gt;&lt;/p&gt;&lt;ol&gt;&lt;li&gt;&lt;span&gt;&lt;font face=&quot;Courier New&quot;&gt;~/.sbt/repositories&lt;/font&gt;&lt;/span&gt;&lt;/li&gt;&lt;li&gt;&lt;font face=&quot;Courier New&quot;&gt;${SBT_HOME|/conf/sbtconfig.txt - &lt;/font&gt;windows only&lt;/li&gt;&lt;/ol&gt;&lt;p&gt;&lt;/p&gt;&lt;/div&gt;" style="whiteSpace=wrap;html=1;rounded=1;arcSize=17;align=left;verticalAlign=middle;container=1;recursiveResize=0;strokeWidth=1;autosize=1;spacing=4;treeFolding=1;treeMoving=1;snapToPoint=1;fixDash=0;backgroundOutline=0;" parent="N3cMap2h_up9qQD8FVAQ-1" vertex="1">
                    <mxGeometry x="304" y="299" width="384" height="66" as="geometry"/>
                </mxCell>
                <mxCell id="O9Gpfqa4K7yXEEilXagh-0" value="&lt;table cellpadding=&quot;4&quot; cellspacing=&quot;0&quot; border=&quot;1&quot; style=&quot;font-size: 1em ; width: 100% ; height: 100%&quot;&gt;&lt;tbody&gt;&lt;tr&gt;&lt;th&gt;application structure&lt;/th&gt;&lt;th&gt;contents&lt;/th&gt;&lt;/tr&gt;&lt;tr&gt;&lt;td&gt;&lt;span style=&quot;text-align: center&quot;&gt;build.sbt&lt;/span&gt;&lt;/td&gt;&lt;td&gt;&lt;span style=&quot;font-family: &amp;#34;courier new&amp;#34;&quot;&gt;scalaVersion := &quot;2.13.1&quot;&lt;/span&gt;&lt;br style=&quot;font-family: &amp;#34;courier new&amp;#34;&quot;&gt;&lt;span style=&quot;font-family: &amp;#34;courier new&amp;#34;&quot;&gt;name := &quot;hello-world&quot;&lt;/span&gt;&lt;br style=&quot;font-family: &amp;#34;courier new&amp;#34;&quot;&gt;&lt;span style=&quot;font-family: &amp;#34;courier new&amp;#34;&quot;&gt;organization := &quot;ch.epfl.scala&quot;&lt;/span&gt;&lt;br style=&quot;font-family: &amp;#34;courier new&amp;#34;&quot;&gt;&lt;span style=&quot;font-family: &amp;#34;courier new&amp;#34;&quot;&gt;version := &quot;1.0&quot;&lt;br&gt;&lt;br&gt;&lt;/span&gt;&lt;font face=&quot;Courier New&quot;&gt;scalacOptions ++= Seq(&quot;-unchecked&quot;, &quot;-deprecation&quot;)&lt;br&gt;&lt;br&gt;&lt;/font&gt;# jars stored in&amp;nbsp;&lt;font face=&quot;Courier New&quot; style=&quot;font-family: &amp;#34;courier new&amp;#34;&quot;&gt;~/.ivy2/cache&lt;/font&gt;&lt;br&gt;&lt;font face=&quot;Courier New&quot;&gt;libraryDependencies += &quot;org.typelevel&quot; %% &quot;cats-core&quot; % &quot;2.0.0&quot;&lt;br&gt;&lt;/font&gt;&lt;/td&gt;&lt;/tr&gt;&lt;tr&gt;&lt;td&gt;build.properties&lt;/td&gt;&lt;td&gt;&lt;span style=&quot;font-family: &amp;#34;courier new&amp;#34;&quot;&gt;sbt.version=1.3.2&lt;/span&gt;&lt;br&gt;&lt;/td&gt;&lt;/tr&gt;&lt;/tbody&gt;&lt;/table&gt; " style="verticalAlign=top;align=left;overflow=fill;fontSize=12;fontFamily=Helvetica;html=1" parent="N3cMap2h_up9qQD8FVAQ-1" vertex="1">
                    <mxGeometry x="34" y="631" width="704" height="234" as="geometry"/>
                </mxCell>
                <mxCell id="FMe6gB9Hs_ymot_MHW-N-0" value="&lt;table cellpadding=&quot;4&quot; cellspacing=&quot;0&quot; border=&quot;1&quot; style=&quot;font-size: 1em ; width: 100% ; height: 100%&quot;&gt;&lt;tbody&gt;&lt;tr&gt;&lt;th&gt;configuration&lt;/th&gt;&lt;th&gt;contents&lt;/th&gt;&lt;/tr&gt;&lt;tr&gt;&lt;td&gt;~/.sbt/repositories&lt;br&gt;&lt;/td&gt;&lt;td&gt;see&amp;nbsp;file&amp;nbsp;repositories&lt;/td&gt;&lt;/tr&gt;&lt;tr&gt;&lt;td&gt;${SBT_HOME|/conf/sbtconfig.txt&lt;/td&gt;&lt;td&gt;1.&amp;nbsp;&lt;font face=&quot;Courier New&quot;&gt;-XX:MaxPermSize=256m&lt;br&gt;&lt;/font&gt;&lt;span&gt;&lt;br&gt;&lt;/span&gt;Java HotSpot(TM) 64-Bit Server VM warning: ignoring option MaxPermSize=256m; support &lt;br&gt;was removed in 8.0&lt;br&gt;&lt;/td&gt;&lt;/tr&gt;&lt;/tbody&gt;&lt;/table&gt; " style="verticalAlign=top;align=left;overflow=fill;fontSize=12;fontFamily=Helvetica;html=1" parent="N3cMap2h_up9qQD8FVAQ-1" vertex="1">
                    <mxGeometry x="32" y="896" width="706" height="122" as="geometry"/>
                </mxCell>
            </root>
        </mxGraphModel>
    </diagram>
</mxfile>